# xmcd
#
# Track frame offsets:
#	150
#	32357
#	58720
#	87385
#	114442
#	136540
#	152935
#	182975
#
# Disc length: 2719 seconds
#
# Revision: 1
# Processed by: cddbd v1.5.1PL0 Copyright (c) Steve Scherf et al.
# Submitted via: CDex 1.50Beta5
#
DISCID=600a9d08
DTITLE=Foe - FOE
DYEAR=2002
DGENRE=Rock
TTITLE0=Cry For The Moon
TTITLE1=ルル
TTITLE2=☆
TTITLE3=徳利
TTITLE4=オセロー
TTITLE5=0か10
TTITLE6=I'm Swayin' In The Air
TTITLE7=雨
EXTD=
EXTT0=
EXTT1=
EXTT2=
EXTT3=
EXTT4=
EXTT5=
EXTT6=
EXTT7=
PLAYORDER=
